<?xml version="1.0" encoding="utf-8" standalone="no"?>
<!DOCTYPE svg PUBLIC "-//W3C//DTD SVG 1.1//EN"
  "http://www.w3.org/Graphics/SVG/1.1/DTD/svg11.dtd">
<svg xmlns:xlink="http://www.w3.org/1999/xlink" width="389.474375pt" height="246.95375pt" viewBox="0 0 389.474375 246.95375" xmlns="http://www.w3.org/2000/svg" version="1.1">
 <metadata>
  <rdf:RDF xmlns:dc="http://purl.org/dc/elements/1.1/" xmlns:cc="http://creativecommons.org/ns#" xmlns:rdf="http://www.w3.org/1999/02/22-rdf-syntax-ns#">
   <cc:Work>
    <dc:type rdf:resource="http://purl.org/dc/dcmitype/StillImage"/>
    <dc:date>2024-11-03T10:42:52.545421</dc:date>
    <dc:format>image/svg+xml</dc:format>
    <dc:creator>
     <cc:Agent>
      <dc:title>Matplotlib v3.7.2, https://matplotlib.org/</dc:title>
     </cc:Agent>
    </dc:creator>
   </cc:Work>
  </rdf:RDF>
 </metadata>
 <defs>
  <style type="text/css">*{stroke-linejoin: round; stroke-linecap: butt}</style>
 </defs>
 <g id="figure_1">
  <g id="patch_1">
   <path d="M 0 246.95375 
L 389.474375 246.95375 
L 389.474375 0 
L 0 0 
z
" style="fill: #ffffff"/>
  </g>
  <g id="axes_1">
   <g id="patch_2">
    <path d="M 47.474375 224.64 
L 382.274375 224.64 
L 382.274375 7.2 
L 47.474375 7.2 
z
" style="fill: #ffffff"/>
   </g>
   <g id="matplotlib.axis_1">
    <g id="xtick_1">
     <g id="line2d_1">
      <defs>
       <path id="meb93bb700d" d="M 0 0 
L 0 -6 
" style="stroke: #000000; stroke-width: 1.5"/>
      </defs>
      <g>
       <use xlink:href="#meb93bb700d" x="62.692557" y="224.64" style="stroke: #000000; stroke-width: 1.5"/>
      </g>
     </g>
     <g id="line2d_2">
      <defs>
       <path id="m6b30f68701" d="M 0 0 
L 0 6 
" style="stroke: #000000; stroke-width: 1.5"/>
      </defs>
      <g>
       <use xlink:href="#m6b30f68701" x="62.692557" y="7.2" style="stroke: #000000; stroke-width: 1.5"/>
      </g>
     </g>
     <g id="text_1">
      <!-- 0 -->
      <g transform="translate(58.875057 237.258125) scale(0.12 -0.12)">
       <defs>
        <path id="DejaVuSans-30" d="M 2034 4250 
Q 1547 4250 1301 3770 
Q 1056 3291 1056 2328 
Q 1056 1369 1301 889 
Q 1547 409 2034 409 
Q 2525 409 2770 889 
Q 3016 1369 3016 2328 
Q 3016 3291 2770 3770 
Q 2525 4250 2034 4250 
z
M 2034 4750 
Q 2819 4750 3233 4129 
Q 3647 3509 3647 2328 
Q 3647 1150 3233 529 
Q 2819 -91 2034 -91 
Q 1250 -91 836 529 
Q 422 1150 422 2328 
Q 422 3509 836 4129 
Q 1250 4750 2034 4750 
z
" transform="scale(0.015625)"/>
       </defs>
       <use xlink:href="#DejaVuSans-30"/>
      </g>
     </g>
    </g>
    <g id="xtick_2">
     <g id="line2d_3">
      <g>
       <use xlink:href="#meb93bb700d" x="111.133534" y="224.64" style="stroke: #000000; stroke-width: 1.5"/>
      </g>
     </g>
     <g id="line2d_4">
      <g>
       <use xlink:href="#m6b30f68701" x="111.133534" y="7.2" style="stroke: #000000; stroke-width: 1.5"/>
      </g>
     </g>
     <g id="text_2">
      <!-- 1 -->
      <g transform="translate(107.316034 237.258125) scale(0.12 -0.12)">
       <defs>
        <path id="DejaVuSans-31" d="M 794 531 
L 1825 531 
L 1825 4091 
L 703 3866 
L 703 4441 
L 1819 4666 
L 2450 4666 
L 2450 531 
L 3481 531 
L 3481 0 
L 794 0 
L 794 531 
z
" transform="scale(0.015625)"/>
       </defs>
       <use xlink:href="#DejaVuSans-31"/>
      </g>
     </g>
    </g>
    <g id="xtick_3">
     <g id="line2d_5">
      <g>
       <use xlink:href="#meb93bb700d" x="159.574511" y="224.64" style="stroke: #000000; stroke-width: 1.5"/>
      </g>
     </g>
     <g id="line2d_6">
      <g>
       <use xlink:href="#m6b30f68701" x="159.574511" y="7.2" style="stroke: #000000; stroke-width: 1.5"/>
      </g>
     </g>
     <g id="text_3">
      <!-- 2 -->
      <g transform="translate(155.757011 237.258125) scale(0.12 -0.12)">
       <defs>
        <path id="DejaVuSans-32" d="M 1228 531 
L 3431 531 
L 3431 0 
L 469 0 
L 469 531 
Q 828 903 1448 1529 
Q 2069 2156 2228 2338 
Q 2531 2678 2651 2914 
Q 2772 3150 2772 3378 
Q 2772 3750 2511 3984 
Q 2250 4219 1831 4219 
Q 1534 4219 1204 4116 
Q 875 4013 500 3803 
L 500 4441 
Q 881 4594 1212 4672 
Q 1544 4750 1819 4750 
Q 2544 4750 2975 4387 
Q 3406 4025 3406 3419 
Q 3406 3131 3298 2873 
Q 3191 2616 2906 2266 
Q 2828 2175 2409 1742 
Q 1991 1309 1228 531 
z
" transform="scale(0.015625)"/>
       </defs>
       <use xlink:href="#DejaVuSans-32"/>
      </g>
     </g>
    </g>
    <g id="xtick_4">
     <g id="line2d_7">
      <g>
       <use xlink:href="#meb93bb700d" x="208.015488" y="224.64" style="stroke: #000000; stroke-width: 1.5"/>
      </g>
     </g>
     <g id="line2d_8">
      <g>
       <use xlink:href="#m6b30f68701" x="208.015488" y="7.2" style="stroke: #000000; stroke-width: 1.5"/>
      </g>
     </g>
     <g id="text_4">
      <!-- 3 -->
      <g transform="translate(204.197988 237.258125) scale(0.12 -0.12)">
       <defs>
        <path id="DejaVuSans-33" d="M 2597 2516 
Q 3050 2419 3304 2112 
Q 3559 1806 3559 1356 
Q 3559 666 3084 287 
Q 2609 -91 1734 -91 
Q 1441 -91 1130 -33 
Q 819 25 488 141 
L 488 750 
Q 750 597 1062 519 
Q 1375 441 1716 441 
Q 2309 441 2620 675 
Q 2931 909 2931 1356 
Q 2931 1769 2642 2001 
Q 2353 2234 1838 2234 
L 1294 2234 
L 1294 2753 
L 1863 2753 
Q 2328 2753 2575 2939 
Q 2822 3125 2822 3475 
Q 2822 3834 2567 4026 
Q 2313 4219 1838 4219 
Q 1578 4219 1281 4162 
Q 984 4106 628 3988 
L 628 4550 
Q 988 4650 1302 4700 
Q 1616 4750 1894 4750 
Q 2613 4750 3031 4423 
Q 3450 4097 3450 3541 
Q 3450 3153 3228 2886 
Q 3006 2619 2597 2516 
z
" transform="scale(0.015625)"/>
       </defs>
       <use xlink:href="#DejaVuSans-33"/>
      </g>
     </g>
    </g>
    <g id="xtick_5">
     <g id="line2d_9">
      <g>
       <use xlink:href="#meb93bb700d" x="256.456466" y="224.64" style="stroke: #000000; stroke-width: 1.5"/>
      </g>
     </g>
     <g id="line2d_10">
      <g>
       <use xlink:href="#m6b30f68701" x="256.456466" y="7.2" style="stroke: #000000; stroke-width: 1.5"/>
      </g>
     </g>
     <g id="text_5">
      <!-- 4 -->
      <g transform="translate(252.638966 237.258125) scale(0.12 -0.12)">
       <defs>
        <path id="DejaVuSans-34" d="M 2419 4116 
L 825 1625 
L 2419 1625 
L 2419 4116 
z
M 2253 4666 
L 3047 4666 
L 3047 1625 
L 3713 1625 
L 3713 1100 
L 3047 1100 
L 3047 0 
L 2419 0 
L 2419 1100 
L 313 1100 
L 313 1709 
L 2253 4666 
z
" transform="scale(0.015625)"/>
       </defs>
       <use xlink:href="#DejaVuSans-34"/>
      </g>
     </g>
    </g>
    <g id="xtick_6">
     <g id="line2d_11">
      <g>
       <use xlink:href="#meb93bb700d" x="304.897443" y="224.64" style="stroke: #000000; stroke-width: 1.5"/>
      </g>
     </g>
     <g id="line2d_12">
      <g>
       <use xlink:href="#m6b30f68701" x="304.897443" y="7.2" style="stroke: #000000; stroke-width: 1.5"/>
      </g>
     </g>
     <g id="text_6">
      <!-- 5 -->
      <g transform="translate(301.079943 237.258125) scale(0.12 -0.12)">
       <defs>
        <path id="DejaVuSans-35" d="M 691 4666 
L 3169 4666 
L 3169 4134 
L 1269 4134 
L 1269 2991 
Q 1406 3038 1543 3061 
Q 1681 3084 1819 3084 
Q 2600 3084 3056 2656 
Q 3513 2228 3513 1497 
Q 3513 744 3044 326 
Q 2575 -91 1722 -91 
Q 1428 -91 1123 -41 
Q 819 9 494 109 
L 494 744 
Q 775 591 1075 516 
Q 1375 441 1709 441 
Q 2250 441 2565 725 
Q 2881 1009 2881 1497 
Q 2881 1984 2565 2268 
Q 2250 2553 1709 2553 
Q 1456 2553 1204 2497 
Q 953 2441 691 2322 
L 691 4666 
z
" transform="scale(0.015625)"/>
       </defs>
       <use xlink:href="#DejaVuSans-35"/>
      </g>
     </g>
    </g>
    <g id="xtick_7">
     <g id="line2d_13">
      <g>
       <use xlink:href="#meb93bb700d" x="353.33842" y="224.64" style="stroke: #000000; stroke-width: 1.5"/>
      </g>
     </g>
     <g id="line2d_14">
      <g>
       <use xlink:href="#m6b30f68701" x="353.33842" y="7.2" style="stroke: #000000; stroke-width: 1.5"/>
      </g>
     </g>
     <g id="text_7">
      <!-- 6 -->
      <g transform="translate(349.52092 237.258125) scale(0.12 -0.12)">
       <defs>
        <path id="DejaVuSans-36" d="M 2113 2584 
Q 1688 2584 1439 2293 
Q 1191 2003 1191 1497 
Q 1191 994 1439 701 
Q 1688 409 2113 409 
Q 2538 409 2786 701 
Q 3034 994 3034 1497 
Q 3034 2003 2786 2293 
Q 2538 2584 2113 2584 
z
M 3366 4563 
L 3366 3988 
Q 3128 4100 2886 4159 
Q 2644 4219 2406 4219 
Q 1781 4219 1451 3797 
Q 1122 3375 1075 2522 
Q 1259 2794 1537 2939 
Q 1816 3084 2150 3084 
Q 2853 3084 3261 2657 
Q 3669 2231 3669 1497 
Q 3669 778 3244 343 
Q 2819 -91 2113 -91 
Q 1303 -91 875 529 
Q 447 1150 447 2328 
Q 447 3434 972 4092 
Q 1497 4750 2381 4750 
Q 2619 4750 2861 4703 
Q 3103 4656 3366 4563 
z
" transform="scale(0.015625)"/>
       </defs>
       <use xlink:href="#DejaVuSans-36"/>
      </g>
     </g>
    </g>
    <g id="xtick_8">
     <g id="line2d_15">
      <defs>
       <path id="m11320cc2a8" d="M 0 0 
L 0 -3 
" style="stroke: #000000; stroke-width: 1.5"/>
      </defs>
      <g>
       <use xlink:href="#m11320cc2a8" x="53.004361" y="224.64" style="stroke: #000000; stroke-width: 1.5"/>
      </g>
     </g>
     <g id="line2d_16">
      <defs>
       <path id="m2c83780057" d="M 0 0 
L 0 3 
" style="stroke: #000000; stroke-width: 1.5"/>
      </defs>
      <g>
       <use xlink:href="#m2c83780057" x="53.004361" y="7.2" style="stroke: #000000; stroke-width: 1.5"/>
      </g>
     </g>
    </g>
    <g id="xtick_9">
     <g id="line2d_17">
      <g>
       <use xlink:href="#m11320cc2a8" x="72.380752" y="224.64" style="stroke: #000000; stroke-width: 1.5"/>
      </g>
     </g>
     <g id="line2d_18">
      <g>
       <use xlink:href="#m2c83780057" x="72.380752" y="7.2" style="stroke: #000000; stroke-width: 1.5"/>
      </g>
     </g>
    </g>
    <g id="xtick_10">
     <g id="line2d_19">
      <g>
       <use xlink:href="#m11320cc2a8" x="82.068948" y="224.64" style="stroke: #000000; stroke-width: 1.5"/>
      </g>
     </g>
     <g id="line2d_20">
      <g>
       <use xlink:href="#m2c83780057" x="82.068948" y="7.2" style="stroke: #000000; stroke-width: 1.5"/>
      </g>
     </g>
    </g>
    <g id="xtick_11">
     <g id="line2d_21">
      <g>
       <use xlink:href="#m11320cc2a8" x="91.757143" y="224.64" style="stroke: #000000; stroke-width: 1.5"/>
      </g>
     </g>
     <g id="line2d_22">
      <g>
       <use xlink:href="#m2c83780057" x="91.757143" y="7.2" style="stroke: #000000; stroke-width: 1.5"/>
      </g>
     </g>
    </g>
    <g id="xtick_12">
     <g id="line2d_23">
      <g>
       <use xlink:href="#m11320cc2a8" x="101.445339" y="224.64" style="stroke: #000000; stroke-width: 1.5"/>
      </g>
     </g>
     <g id="line2d_24">
      <g>
       <use xlink:href="#m2c83780057" x="101.445339" y="7.2" style="stroke: #000000; stroke-width: 1.5"/>
      </g>
     </g>
    </g>
    <g id="xtick_13">
     <g id="line2d_25">
      <g>
       <use xlink:href="#m11320cc2a8" x="120.821729" y="224.64" style="stroke: #000000; stroke-width: 1.5"/>
      </g>
     </g>
     <g id="line2d_26">
      <g>
       <use xlink:href="#m2c83780057" x="120.821729" y="7.2" style="stroke: #000000; stroke-width: 1.5"/>
      </g>
     </g>
    </g>
    <g id="xtick_14">
     <g id="line2d_27">
      <g>
       <use xlink:href="#m11320cc2a8" x="130.509925" y="224.64" style="stroke: #000000; stroke-width: 1.5"/>
      </g>
     </g>
     <g id="line2d_28">
      <g>
       <use xlink:href="#m2c83780057" x="130.509925" y="7.2" style="stroke: #000000; stroke-width: 1.5"/>
      </g>
     </g>
    </g>
    <g id="xtick_15">
     <g id="line2d_29">
      <g>
       <use xlink:href="#m11320cc2a8" x="140.19812" y="224.64" style="stroke: #000000; stroke-width: 1.5"/>
      </g>
     </g>
     <g id="line2d_30">
      <g>
       <use xlink:href="#m2c83780057" x="140.19812" y="7.2" style="stroke: #000000; stroke-width: 1.5"/>
      </g>
     </g>
    </g>
    <g id="xtick_16">
     <g id="line2d_31">
      <g>
       <use xlink:href="#m11320cc2a8" x="149.886316" y="224.64" style="stroke: #000000; stroke-width: 1.5"/>
      </g>
     </g>
     <g id="line2d_32">
      <g>
       <use xlink:href="#m2c83780057" x="149.886316" y="7.2" style="stroke: #000000; stroke-width: 1.5"/>
      </g>
     </g>
    </g>
    <g id="xtick_17">
     <g id="line2d_33">
      <g>
       <use xlink:href="#m11320cc2a8" x="169.262707" y="224.64" style="stroke: #000000; stroke-width: 1.5"/>
      </g>
     </g>
     <g id="line2d_34">
      <g>
       <use xlink:href="#m2c83780057" x="169.262707" y="7.2" style="stroke: #000000; stroke-width: 1.5"/>
      </g>
     </g>
    </g>
    <g id="xtick_18">
     <g id="line2d_35">
      <g>
       <use xlink:href="#m11320cc2a8" x="178.950902" y="224.64" style="stroke: #000000; stroke-width: 1.5"/>
      </g>
     </g>
     <g id="line2d_36">
      <g>
       <use xlink:href="#m2c83780057" x="178.950902" y="7.2" style="stroke: #000000; stroke-width: 1.5"/>
      </g>
     </g>
    </g>
    <g id="xtick_19">
     <g id="line2d_37">
      <g>
       <use xlink:href="#m11320cc2a8" x="188.639098" y="224.64" style="stroke: #000000; stroke-width: 1.5"/>
      </g>
     </g>
     <g id="line2d_38">
      <g>
       <use xlink:href="#m2c83780057" x="188.639098" y="7.2" style="stroke: #000000; stroke-width: 1.5"/>
      </g>
     </g>
    </g>
    <g id="xtick_20">
     <g id="line2d_39">
      <g>
       <use xlink:href="#m11320cc2a8" x="198.327293" y="224.64" style="stroke: #000000; stroke-width: 1.5"/>
      </g>
     </g>
     <g id="line2d_40">
      <g>
       <use xlink:href="#m2c83780057" x="198.327293" y="7.2" style="stroke: #000000; stroke-width: 1.5"/>
      </g>
     </g>
    </g>
    <g id="xtick_21">
     <g id="line2d_41">
      <g>
       <use xlink:href="#m11320cc2a8" x="217.703684" y="224.64" style="stroke: #000000; stroke-width: 1.5"/>
      </g>
     </g>
     <g id="line2d_42">
      <g>
       <use xlink:href="#m2c83780057" x="217.703684" y="7.2" style="stroke: #000000; stroke-width: 1.5"/>
      </g>
     </g>
    </g>
    <g id="xtick_22">
     <g id="line2d_43">
      <g>
       <use xlink:href="#m11320cc2a8" x="227.391879" y="224.64" style="stroke: #000000; stroke-width: 1.5"/>
      </g>
     </g>
     <g id="line2d_44">
      <g>
       <use xlink:href="#m2c83780057" x="227.391879" y="7.2" style="stroke: #000000; stroke-width: 1.5"/>
      </g>
     </g>
    </g>
    <g id="xtick_23">
     <g id="line2d_45">
      <g>
       <use xlink:href="#m11320cc2a8" x="237.080075" y="224.64" style="stroke: #000000; stroke-width: 1.5"/>
      </g>
     </g>
     <g id="line2d_46">
      <g>
       <use xlink:href="#m2c83780057" x="237.080075" y="7.2" style="stroke: #000000; stroke-width: 1.5"/>
      </g>
     </g>
    </g>
    <g id="xtick_24">
     <g id="line2d_47">
      <g>
       <use xlink:href="#m11320cc2a8" x="246.76827" y="224.64" style="stroke: #000000; stroke-width: 1.5"/>
      </g>
     </g>
     <g id="line2d_48">
      <g>
       <use xlink:href="#m2c83780057" x="246.76827" y="7.2" style="stroke: #000000; stroke-width: 1.5"/>
      </g>
     </g>
    </g>
    <g id="xtick_25">
     <g id="line2d_49">
      <g>
       <use xlink:href="#m11320cc2a8" x="266.144661" y="224.64" style="stroke: #000000; stroke-width: 1.5"/>
      </g>
     </g>
     <g id="line2d_50">
      <g>
       <use xlink:href="#m2c83780057" x="266.144661" y="7.2" style="stroke: #000000; stroke-width: 1.5"/>
      </g>
     </g>
    </g>
    <g id="xtick_26">
     <g id="line2d_51">
      <g>
       <use xlink:href="#m11320cc2a8" x="275.832857" y="224.64" style="stroke: #000000; stroke-width: 1.5"/>
      </g>
     </g>
     <g id="line2d_52">
      <g>
       <use xlink:href="#m2c83780057" x="275.832857" y="7.2" style="stroke: #000000; stroke-width: 1.5"/>
      </g>
     </g>
    </g>
    <g id="xtick_27">
     <g id="line2d_53">
      <g>
       <use xlink:href="#m11320cc2a8" x="285.521052" y="224.64" style="stroke: #000000; stroke-width: 1.5"/>
      </g>
     </g>
     <g id="line2d_54">
      <g>
       <use xlink:href="#m2c83780057" x="285.521052" y="7.2" style="stroke: #000000; stroke-width: 1.5"/>
      </g>
     </g>
    </g>
    <g id="xtick_28">
     <g id="line2d_55">
      <g>
       <use xlink:href="#m11320cc2a8" x="295.209247" y="224.64" style="stroke: #000000; stroke-width: 1.5"/>
      </g>
     </g>
     <g id="line2d_56">
      <g>
       <use xlink:href="#m2c83780057" x="295.209247" y="7.2" style="stroke: #000000; stroke-width: 1.5"/>
      </g>
     </g>
    </g>
    <g id="xtick_29">
     <g id="line2d_57">
      <g>
       <use xlink:href="#m11320cc2a8" x="314.585638" y="224.64" style="stroke: #000000; stroke-width: 1.5"/>
      </g>
     </g>
     <g id="line2d_58">
      <g>
       <use xlink:href="#m2c83780057" x="314.585638" y="7.2" style="stroke: #000000; stroke-width: 1.5"/>
      </g>
     </g>
    </g>
    <g id="xtick_30">
     <g id="line2d_59">
      <g>
       <use xlink:href="#m11320cc2a8" x="324.273834" y="224.64" style="stroke: #000000; stroke-width: 1.5"/>
      </g>
     </g>
     <g id="line2d_60">
      <g>
       <use xlink:href="#m2c83780057" x="324.273834" y="7.2" style="stroke: #000000; stroke-width: 1.5"/>
      </g>
     </g>
    </g>
    <g id="xtick_31">
     <g id="line2d_61">
      <g>
       <use xlink:href="#m11320cc2a8" x="333.962029" y="224.64" style="stroke: #000000; stroke-width: 1.5"/>
      </g>
     </g>
     <g id="line2d_62">
      <g>
       <use xlink:href="#m2c83780057" x="333.962029" y="7.2" style="stroke: #000000; stroke-width: 1.5"/>
      </g>
     </g>
    </g>
    <g id="xtick_32">
     <g id="line2d_63">
      <g>
       <use xlink:href="#m11320cc2a8" x="343.650225" y="224.64" style="stroke: #000000; stroke-width: 1.5"/>
      </g>
     </g>
     <g id="line2d_64">
      <g>
       <use xlink:href="#m2c83780057" x="343.650225" y="7.2" style="stroke: #000000; stroke-width: 1.5"/>
      </g>
     </g>
    </g>
    <g id="xtick_33">
     <g id="line2d_65">
      <g>
       <use xlink:href="#m11320cc2a8" x="363.026616" y="224.64" style="stroke: #000000; stroke-width: 1.5"/>
      </g>
     </g>
     <g id="line2d_66">
      <g>
       <use xlink:href="#m2c83780057" x="363.026616" y="7.2" style="stroke: #000000; stroke-width: 1.5"/>
      </g>
     </g>
    </g>
    <g id="xtick_34">
     <g id="line2d_67">
      <g>
       <use xlink:href="#m11320cc2a8" x="372.714811" y="224.64" style="stroke: #000000; stroke-width: 1.5"/>
      </g>
     </g>
     <g id="line2d_68">
      <g>
       <use xlink:href="#m2c83780057" x="372.714811" y="7.2" style="stroke: #000000; stroke-width: 1.5"/>
      </g>
     </g>
    </g>
   </g>
   <g id="matplotlib.axis_2">
    <g id="ytick_1">
     <g id="line2d_69">
      <defs>
       <path id="m3de1388ed0" d="M 0 0 
L 5 0 
" style="stroke: #000000; stroke-width: 1.5"/>
      </defs>
      <g>
       <use xlink:href="#m3de1388ed0" x="47.474375" y="217.282108" style="stroke: #000000; stroke-width: 1.5"/>
      </g>
     </g>
     <g id="line2d_70">
      <defs>
       <path id="m62b997191f" d="M 0 0 
L -5 0 
" style="stroke: #000000; stroke-width: 1.5"/>
      </defs>
      <g>
       <use xlink:href="#m62b997191f" x="382.274375" y="217.282108" style="stroke: #000000; stroke-width: 1.5"/>
      </g>
     </g>
     <g id="text_8">
      <!-- −1.00 -->
      <g transform="translate(7.2 221.84117) scale(0.12 -0.12)">
       <defs>
        <path id="DejaVuSans-2212" d="M 678 2272 
L 4684 2272 
L 4684 1741 
L 678 1741 
L 678 2272 
z
" transform="scale(0.015625)"/>
        <path id="DejaVuSans-2e" d="M 684 794 
L 1344 794 
L 1344 0 
L 684 0 
L 684 794 
z
" transform="scale(0.015625)"/>
       </defs>
       <use xlink:href="#DejaVuSans-2212"/>
       <use xlink:href="#DejaVuSans-31" x="83.789062"/>
       <use xlink:href="#DejaVuSans-2e" x="147.412109"/>
       <use xlink:href="#DejaVuSans-30" x="179.199219"/>
       <use xlink:href="#DejaVuSans-30" x="242.822266"/>
      </g>
     </g>
    </g>
    <g id="ytick_2">
     <g id="line2d_71">
      <g>
       <use xlink:href="#m3de1388ed0" x="47.474375" y="192.232411" style="stroke: #000000; stroke-width: 1.5"/>
      </g>
     </g>
     <g id="line2d_72">
      <g>
       <use xlink:href="#m62b997191f" x="382.274375" y="192.232411" style="stroke: #000000; stroke-width: 1.5"/>
      </g>
     </g>
     <g id="text_9">
      <!-- −0.75 -->
      <g transform="translate(7.2 196.791473) scale(0.12 -0.12)">
       <defs>
        <path id="DejaVuSans-37" d="M 525 4666 
L 3525 4666 
L 3525 4397 
L 1831 0 
L 1172 0 
L 2766 4134 
L 525 4134 
L 525 4666 
z
" transform="scale(0.015625)"/>
       </defs>
       <use xlink:href="#DejaVuSans-2212"/>
       <use xlink:href="#DejaVuSans-30" x="83.789062"/>
       <use xlink:href="#DejaVuSans-2e" x="147.412109"/>
       <use xlink:href="#DejaVuSans-37" x="179.199219"/>
       <use xlink:href="#DejaVuSans-35" x="242.822266"/>
      </g>
     </g>
    </g>
    <g id="ytick_3">
     <g id="line2d_73">
      <g>
       <use xlink:href="#m3de1388ed0" x="47.474375" y="167.182714" style="stroke: #000000; stroke-width: 1.5"/>
      </g>
     </g>
     <g id="line2d_74">
      <g>
       <use xlink:href="#m62b997191f" x="382.274375" y="167.182714" style="stroke: #000000; stroke-width: 1.5"/>
      </g>
     </g>
     <g id="text_10">
      <!-- −0.50 -->
      <g transform="translate(7.2 171.741776) scale(0.12 -0.12)">
       <use xlink:href="#DejaVuSans-2212"/>
       <use xlink:href="#DejaVuSans-30" x="83.789062"/>
       <use xlink:href="#DejaVuSans-2e" x="147.412109"/>
       <use xlink:href="#DejaVuSans-35" x="179.199219"/>
       <use xlink:href="#DejaVuSans-30" x="242.822266"/>
      </g>
     </g>
    </g>
    <g id="ytick_4">
     <g id="line2d_75">
      <g>
       <use xlink:href="#m3de1388ed0" x="47.474375" y="142.133017" style="stroke: #000000; stroke-width: 1.5"/>
      </g>
     </g>
     <g id="line2d_76">
      <g>
       <use xlink:href="#m62b997191f" x="382.274375" y="142.133017" style="stroke: #000000; stroke-width: 1.5"/>
      </g>
     </g>
     <g id="text_11">
      <!-- −0.25 -->
      <g transform="translate(7.2 146.692079) scale(0.12 -0.12)">
       <use xlink:href="#DejaVuSans-2212"/>
       <use xlink:href="#DejaVuSans-30" x="83.789062"/>
       <use xlink:href="#DejaVuSans-2e" x="147.412109"/>
       <use xlink:href="#DejaVuSans-32" x="179.199219"/>
       <use xlink:href="#DejaVuSans-35" x="242.822266"/>
      </g>
     </g>
    </g>
    <g id="ytick_5">
     <g id="line2d_77">
      <g>
       <use xlink:href="#m3de1388ed0" x="47.474375" y="117.08332" style="stroke: #000000; stroke-width: 1.5"/>
      </g>
     </g>
     <g id="line2d_78">
      <g>
       <use xlink:href="#m62b997191f" x="382.274375" y="117.08332" style="stroke: #000000; stroke-width: 1.5"/>
      </g>
     </g>
     <g id="text_12">
      <!-- 0.00 -->
      <g transform="translate(17.255625 121.642382) scale(0.12 -0.12)">
       <use xlink:href="#DejaVuSans-30"/>
       <use xlink:href="#DejaVuSans-2e" x="63.623047"/>
       <use xlink:href="#DejaVuSans-30" x="95.410156"/>
       <use xlink:href="#DejaVuSans-30" x="159.033203"/>
      </g>
     </g>
    </g>
    <g id="ytick_6">
     <g id="line2d_79">
      <g>
       <use xlink:href="#m3de1388ed0" x="47.474375" y="92.033623" style="stroke: #000000; stroke-width: 1.5"/>
      </g>
     </g>
     <g id="line2d_80">
      <g>
       <use xlink:href="#m62b997191f" x="382.274375" y="92.033623" style="stroke: #000000; stroke-width: 1.5"/>
      </g>
     </g>
     <g id="text_13">
      <!-- 0.25 -->
      <g transform="translate(17.255625 96.592686) scale(0.12 -0.12)">
       <use xlink:href="#DejaVuSans-30"/>
       <use xlink:href="#DejaVuSans-2e" x="63.623047"/>
       <use xlink:href="#DejaVuSans-32" x="95.410156"/>
       <use xlink:href="#DejaVuSans-35" x="159.033203"/>
      </g>
     </g>
    </g>
    <g id="ytick_7">
     <g id="line2d_81">
      <g>
       <use xlink:href="#m3de1388ed0" x="47.474375" y="66.983926" style="stroke: #000000; stroke-width: 1.5"/>
      </g>
     </g>
     <g id="line2d_82">
      <g>
       <use xlink:href="#m62b997191f" x="382.274375" y="66.983926" style="stroke: #000000; stroke-width: 1.5"/>
      </g>
     </g>
     <g id="text_14">
      <!-- 0.50 -->
      <g transform="translate(17.255625 71.542989) scale(0.12 -0.12)">
       <use xlink:href="#DejaVuSans-30"/>
       <use xlink:href="#DejaVuSans-2e" x="63.623047"/>
       <use xlink:href="#DejaVuSans-35" x="95.410156"/>
       <use xlink:href="#DejaVuSans-30" x="159.033203"/>
      </g>
     </g>
    </g>
    <g id="ytick_8">
     <g id="line2d_83">
      <g>
       <use xlink:href="#m3de1388ed0" x="47.474375" y="41.934229" style="stroke: #000000; stroke-width: 1.5"/>
      </g>
     </g>
     <g id="line2d_84">
      <g>
       <use xlink:href="#m62b997191f" x="382.274375" y="41.934229" style="stroke: #000000; stroke-width: 1.5"/>
      </g>
     </g>
     <g id="text_15">
      <!-- 0.75 -->
      <g transform="translate(17.255625 46.493292) scale(0.12 -0.12)">
       <use xlink:href="#DejaVuSans-30"/>
       <use xlink:href="#DejaVuSans-2e" x="63.623047"/>
       <use xlink:href="#DejaVuSans-37" x="95.410156"/>
       <use xlink:href="#DejaVuSans-35" x="159.033203"/>
      </g>
     </g>
    </g>
    <g id="ytick_9">
     <g id="line2d_85">
      <g>
       <use xlink:href="#m3de1388ed0" x="47.474375" y="16.884532" style="stroke: #000000; stroke-width: 1.5"/>
      </g>
     </g>
     <g id="line2d_86">
      <g>
       <use xlink:href="#m62b997191f" x="382.274375" y="16.884532" style="stroke: #000000; stroke-width: 1.5"/>
      </g>
     </g>
     <g id="text_16">
      <!-- 1.00 -->
      <g transform="translate(17.255625 21.443595) scale(0.12 -0.12)">
       <use xlink:href="#DejaVuSans-31"/>
       <use xlink:href="#DejaVuSans-2e" x="63.623047"/>
       <use xlink:href="#DejaVuSans-30" x="95.410156"/>
       <use xlink:href="#DejaVuSans-30" x="159.033203"/>
      </g>
     </g>
    </g>
    <g id="ytick_10">
     <g id="line2d_87">
      <defs>
       <path id="me18cf8ea39" d="M 0 0 
L 3 0 
" style="stroke: #000000; stroke-width: 1.5"/>
      </defs>
      <g>
       <use xlink:href="#me18cf8ea39" x="47.474375" y="222.292047" style="stroke: #000000; stroke-width: 1.5"/>
      </g>
     </g>
     <g id="line2d_88">
      <defs>
       <path id="m503517d58c" d="M 0 0 
L -3 0 
" style="stroke: #000000; stroke-width: 1.5"/>
      </defs>
      <g>
       <use xlink:href="#m503517d58c" x="382.274375" y="222.292047" style="stroke: #000000; stroke-width: 1.5"/>
      </g>
     </g>
    </g>
    <g id="ytick_11">
     <g id="line2d_89">
      <g>
       <use xlink:href="#me18cf8ea39" x="47.474375" y="212.272168" style="stroke: #000000; stroke-width: 1.5"/>
      </g>
     </g>
     <g id="line2d_90">
      <g>
       <use xlink:href="#m503517d58c" x="382.274375" y="212.272168" style="stroke: #000000; stroke-width: 1.5"/>
      </g>
     </g>
    </g>
    <g id="ytick_12">
     <g id="line2d_91">
      <g>
       <use xlink:href="#me18cf8ea39" x="47.474375" y="207.262229" style="stroke: #000000; stroke-width: 1.5"/>
      </g>
     </g>
     <g id="line2d_92">
      <g>
       <use xlink:href="#m503517d58c" x="382.274375" y="207.262229" style="stroke: #000000; stroke-width: 1.5"/>
      </g>
     </g>
    </g>
    <g id="ytick_13">
     <g id="line2d_93">
      <g>
       <use xlink:href="#me18cf8ea39" x="47.474375" y="202.25229" style="stroke: #000000; stroke-width: 1.5"/>
      </g>
     </g>
     <g id="line2d_94">
      <g>
       <use xlink:href="#m503517d58c" x="382.274375" y="202.25229" style="stroke: #000000; stroke-width: 1.5"/>
      </g>
     </g>
    </g>
    <g id="ytick_14">
     <g id="line2d_95">
      <g>
       <use xlink:href="#me18cf8ea39" x="47.474375" y="197.24235" style="stroke: #000000; stroke-width: 1.5"/>
      </g>
     </g>
     <g id="line2d_96">
      <g>
       <use xlink:href="#m503517d58c" x="382.274375" y="197.24235" style="stroke: #000000; stroke-width: 1.5"/>
      </g>
     </g>
    </g>
    <g id="ytick_15">
     <g id="line2d_97">
      <g>
       <use xlink:href="#me18cf8ea39" x="47.474375" y="187.222472" style="stroke: #000000; stroke-width: 1.5"/>
      </g>
     </g>
     <g id="line2d_98">
      <g>
       <use xlink:href="#m503517d58c" x="382.274375" y="187.222472" style="stroke: #000000; stroke-width: 1.5"/>
      </g>
     </g>
    </g>
    <g id="ytick_16">
     <g id="line2d_99">
      <g>
       <use xlink:href="#me18cf8ea39" x="47.474375" y="182.212532" style="stroke: #000000; stroke-width: 1.5"/>
      </g>
     </g>
     <g id="line2d_100">
      <g>
       <use xlink:href="#m503517d58c" x="382.274375" y="182.212532" style="stroke: #000000; stroke-width: 1.5"/>
      </g>
     </g>
    </g>
    <g id="ytick_17">
     <g id="line2d_101">
      <g>
       <use xlink:href="#me18cf8ea39" x="47.474375" y="177.202593" style="stroke: #000000; stroke-width: 1.5"/>
      </g>
     </g>
     <g id="line2d_102">
      <g>
       <use xlink:href="#m503517d58c" x="382.274375" y="177.202593" style="stroke: #000000; stroke-width: 1.5"/>
      </g>
     </g>
    </g>
    <g id="ytick_18">
     <g id="line2d_103">
      <g>
       <use xlink:href="#me18cf8ea39" x="47.474375" y="172.192653" style="stroke: #000000; stroke-width: 1.5"/>
      </g>
     </g>
     <g id="line2d_104">
      <g>
       <use xlink:href="#m503517d58c" x="382.274375" y="172.192653" style="stroke: #000000; stroke-width: 1.5"/>
      </g>
     </g>
    </g>
    <g id="ytick_19">
     <g id="line2d_105">
      <g>
       <use xlink:href="#me18cf8ea39" x="47.474375" y="162.172775" style="stroke: #000000; stroke-width: 1.5"/>
      </g>
     </g>
     <g id="line2d_106">
      <g>
       <use xlink:href="#m503517d58c" x="382.274375" y="162.172775" style="stroke: #000000; stroke-width: 1.5"/>
      </g>
     </g>
    </g>
    <g id="ytick_20">
     <g id="line2d_107">
      <g>
       <use xlink:href="#me18cf8ea39" x="47.474375" y="157.162835" style="stroke: #000000; stroke-width: 1.5"/>
      </g>
     </g>
     <g id="line2d_108">
      <g>
       <use xlink:href="#m503517d58c" x="382.274375" y="157.162835" style="stroke: #000000; stroke-width: 1.5"/>
      </g>
     </g>
    </g>
    <g id="ytick_21">
     <g id="line2d_109">
      <g>
       <use xlink:href="#me18cf8ea39" x="47.474375" y="152.152896" style="stroke: #000000; stroke-width: 1.5"/>
      </g>
     </g>
     <g id="line2d_110">
      <g>
       <use xlink:href="#m503517d58c" x="382.274375" y="152.152896" style="stroke: #000000; stroke-width: 1.5"/>
      </g>
     </g>
    </g>
    <g id="ytick_22">
     <g id="line2d_111">
      <g>
       <use xlink:href="#me18cf8ea39" x="47.474375" y="147.142956" style="stroke: #000000; stroke-width: 1.5"/>
      </g>
     </g>
     <g id="line2d_112">
      <g>
       <use xlink:href="#m503517d58c" x="382.274375" y="147.142956" style="stroke: #000000; stroke-width: 1.5"/>
      </g>
     </g>
    </g>
    <g id="ytick_23">
     <g id="line2d_113">
      <g>
       <use xlink:href="#me18cf8ea39" x="47.474375" y="137.123078" style="stroke: #000000; stroke-width: 1.5"/>
      </g>
     </g>
     <g id="line2d_114">
      <g>
       <use xlink:href="#m503517d58c" x="382.274375" y="137.123078" style="stroke: #000000; stroke-width: 1.5"/>
      </g>
     </g>
    </g>
    <g id="ytick_24">
     <g id="line2d_115">
      <g>
       <use xlink:href="#me18cf8ea39" x="47.474375" y="132.113138" style="stroke: #000000; stroke-width: 1.5"/>
      </g>
     </g>
     <g id="line2d_116">
      <g>
       <use xlink:href="#m503517d58c" x="382.274375" y="132.113138" style="stroke: #000000; stroke-width: 1.5"/>
      </g>
     </g>
    </g>
    <g id="ytick_25">
     <g id="line2d_117">
      <g>
       <use xlink:href="#me18cf8ea39" x="47.474375" y="127.103199" style="stroke: #000000; stroke-width: 1.5"/>
      </g>
     </g>
     <g id="line2d_118">
      <g>
       <use xlink:href="#m503517d58c" x="382.274375" y="127.103199" style="stroke: #000000; stroke-width: 1.5"/>
      </g>
     </g>
    </g>
    <g id="ytick_26">
     <g id="line2d_119">
      <g>
       <use xlink:href="#me18cf8ea39" x="47.474375" y="122.093259" style="stroke: #000000; stroke-width: 1.5"/>
      </g>
     </g>
     <g id="line2d_120">
      <g>
       <use xlink:href="#m503517d58c" x="382.274375" y="122.093259" style="stroke: #000000; stroke-width: 1.5"/>
      </g>
     </g>
    </g>
    <g id="ytick_27">
     <g id="line2d_121">
      <g>
       <use xlink:href="#me18cf8ea39" x="47.474375" y="112.073381" style="stroke: #000000; stroke-width: 1.5"/>
      </g>
     </g>
     <g id="line2d_122">
      <g>
       <use xlink:href="#m503517d58c" x="382.274375" y="112.073381" style="stroke: #000000; stroke-width: 1.5"/>
      </g>
     </g>
    </g>
    <g id="ytick_28">
     <g id="line2d_123">
      <g>
       <use xlink:href="#me18cf8ea39" x="47.474375" y="107.063441" style="stroke: #000000; stroke-width: 1.5"/>
      </g>
     </g>
     <g id="line2d_124">
      <g>
       <use xlink:href="#m503517d58c" x="382.274375" y="107.063441" style="stroke: #000000; stroke-width: 1.5"/>
      </g>
     </g>
    </g>
    <g id="ytick_29">
     <g id="line2d_125">
      <g>
       <use xlink:href="#me18cf8ea39" x="47.474375" y="102.053502" style="stroke: #000000; stroke-width: 1.5"/>
      </g>
     </g>
     <g id="line2d_126">
      <g>
       <use xlink:href="#m503517d58c" x="382.274375" y="102.053502" style="stroke: #000000; stroke-width: 1.5"/>
      </g>
     </g>
    </g>
    <g id="ytick_30">
     <g id="line2d_127">
      <g>
       <use xlink:href="#me18cf8ea39" x="47.474375" y="97.043562" style="stroke: #000000; stroke-width: 1.5"/>
      </g>
     </g>
     <g id="line2d_128">
      <g>
       <use xlink:href="#m503517d58c" x="382.274375" y="97.043562" style="stroke: #000000; stroke-width: 1.5"/>
      </g>
     </g>
    </g>
    <g id="ytick_31">
     <g id="line2d_129">
      <g>
       <use xlink:href="#me18cf8ea39" x="47.474375" y="87.023684" style="stroke: #000000; stroke-width: 1.5"/>
      </g>
     </g>
     <g id="line2d_130">
      <g>
       <use xlink:href="#m503517d58c" x="382.274375" y="87.023684" style="stroke: #000000; stroke-width: 1.5"/>
      </g>
     </g>
    </g>
    <g id="ytick_32">
     <g id="line2d_131">
      <g>
       <use xlink:href="#me18cf8ea39" x="47.474375" y="82.013744" style="stroke: #000000; stroke-width: 1.5"/>
      </g>
     </g>
     <g id="line2d_132">
      <g>
       <use xlink:href="#m503517d58c" x="382.274375" y="82.013744" style="stroke: #000000; stroke-width: 1.5"/>
      </g>
     </g>
    </g>
    <g id="ytick_33">
     <g id="line2d_133">
      <g>
       <use xlink:href="#me18cf8ea39" x="47.474375" y="77.003805" style="stroke: #000000; stroke-width: 1.5"/>
      </g>
     </g>
     <g id="line2d_134">
      <g>
       <use xlink:href="#m503517d58c" x="382.274375" y="77.003805" style="stroke: #000000; stroke-width: 1.5"/>
      </g>
     </g>
    </g>
    <g id="ytick_34">
     <g id="line2d_135">
      <g>
       <use xlink:href="#me18cf8ea39" x="47.474375" y="71.993865" style="stroke: #000000; stroke-width: 1.5"/>
      </g>
     </g>
     <g id="line2d_136">
      <g>
       <use xlink:href="#m503517d58c" x="382.274375" y="71.993865" style="stroke: #000000; stroke-width: 1.5"/>
      </g>
     </g>
    </g>
    <g id="ytick_35">
     <g id="line2d_137">
      <g>
       <use xlink:href="#me18cf8ea39" x="47.474375" y="61.973987" style="stroke: #000000; stroke-width: 1.5"/>
      </g>
     </g>
     <g id="line2d_138">
      <g>
       <use xlink:href="#m503517d58c" x="382.274375" y="61.973987" style="stroke: #000000; stroke-width: 1.5"/>
      </g>
     </g>
    </g>
    <g id="ytick_36">
     <g id="line2d_139">
      <g>
       <use xlink:href="#me18cf8ea39" x="47.474375" y="56.964047" style="stroke: #000000; stroke-width: 1.5"/>
      </g>
     </g>
     <g id="line2d_140">
      <g>
       <use xlink:href="#m503517d58c" x="382.274375" y="56.964047" style="stroke: #000000; stroke-width: 1.5"/>
      </g>
     </g>
    </g>
    <g id="ytick_37">
     <g id="line2d_141">
      <g>
       <use xlink:href="#me18cf8ea39" x="47.474375" y="51.954108" style="stroke: #000000; stroke-width: 1.5"/>
      </g>
     </g>
     <g id="line2d_142">
      <g>
       <use xlink:href="#m503517d58c" x="382.274375" y="51.954108" style="stroke: #000000; stroke-width: 1.5"/>
      </g>
     </g>
    </g>
    <g id="ytick_38">
     <g id="line2d_143">
      <g>
       <use xlink:href="#me18cf8ea39" x="47.474375" y="46.944168" style="stroke: #000000; stroke-width: 1.5"/>
      </g>
     </g>
     <g id="line2d_144">
      <g>
       <use xlink:href="#m503517d58c" x="382.274375" y="46.944168" style="stroke: #000000; stroke-width: 1.5"/>
      </g>
     </g>
    </g>
    <g id="ytick_39">
     <g id="line2d_145">
      <g>
       <use xlink:href="#me18cf8ea39" x="47.474375" y="36.92429" style="stroke: #000000; stroke-width: 1.5"/>
      </g>
     </g>
     <g id="line2d_146">
      <g>
       <use xlink:href="#m503517d58c" x="382.274375" y="36.92429" style="stroke: #000000; stroke-width: 1.5"/>
      </g>
     </g>
    </g>
    <g id="ytick_40">
     <g id="line2d_147">
      <g>
       <use xlink:href="#me18cf8ea39" x="47.474375" y="31.91435" style="stroke: #000000; stroke-width: 1.5"/>
      </g>
     </g>
     <g id="line2d_148">
      <g>
       <use xlink:href="#m503517d58c" x="382.274375" y="31.91435" style="stroke: #000000; stroke-width: 1.5"/>
      </g>
     </g>
    </g>
    <g id="ytick_41">
     <g id="line2d_149">
      <g>
       <use xlink:href="#me18cf8ea39" x="47.474375" y="26.904411" style="stroke: #000000; stroke-width: 1.5"/>
      </g>
     </g>
     <g id="line2d_150">
      <g>
       <use xlink:href="#m503517d58c" x="382.274375" y="26.904411" style="stroke: #000000; stroke-width: 1.5"/>
      </g>
     </g>
    </g>
    <g id="ytick_42">
     <g id="line2d_151">
      <g>
       <use xlink:href="#me18cf8ea39" x="47.474375" y="21.894471" style="stroke: #000000; stroke-width: 1.5"/>
      </g>
     </g>
     <g id="line2d_152">
      <g>
       <use xlink:href="#m503517d58c" x="382.274375" y="21.894471" style="stroke: #000000; stroke-width: 1.5"/>
      </g>
     </g>
    </g>
    <g id="ytick_43">
     <g id="line2d_153">
      <g>
       <use xlink:href="#me18cf8ea39" x="47.474375" y="11.874593" style="stroke: #000000; stroke-width: 1.5"/>
      </g>
     </g>
     <g id="line2d_154">
      <g>
       <use xlink:href="#m503517d58c" x="382.274375" y="11.874593" style="stroke: #000000; stroke-width: 1.5"/>
      </g>
     </g>
    </g>
   </g>
   <g id="line2d_155">
    <path d="M 62.692557 117.078137 
L 91.636046 116.956959 
L 94.682729 116.913132 
L 97.120075 117.104254 
L 101.080763 117.481341 
L 102.908773 117.382693 
L 104.736783 117.037669 
L 108.088134 116.310894 
L 109.306807 116.283087 
L 110.525481 116.481541 
L 111.744154 116.902905 
L 115.704842 118.591095 
L 116.618847 118.659536 
L 117.532852 118.488739 
L 118.446857 118.066886 
L 119.66553 117.166028 
L 122.712213 114.563857 
L 123.626218 114.20121 
L 124.235554 114.175859 
L 124.844891 114.347567 
L 125.454228 114.723739 
L 126.368232 115.65399 
L 127.282237 116.945584 
L 130.024252 121.227618 
L 130.633589 121.831497 
L 131.242925 122.16727 
L 131.852262 122.187582 
L 132.461599 121.862663 
L 133.070935 121.183975 
L 133.680272 120.166687 
L 134.594277 118.099786 
L 136.422287 113.000834 
L 137.336291 110.693233 
L 137.945628 109.514363 
L 138.554965 108.748377 
L 138.859633 108.548129 
L 139.164301 108.481456 
L 139.46897 108.554816 
L 139.773638 108.772556 
L 140.382975 109.647116 
L 140.992311 111.092613 
L 141.906316 114.205295 
L 143.124989 119.539654 
L 144.648331 126.291131 
L 145.562336 129.264266 
L 146.171672 130.43288 
L 146.476341 130.721185 
L 146.781009 130.795077 
L 147.085677 130.64563 
L 147.390346 130.267347 
L 147.999682 128.820679 
L 148.609019 126.486478 
L 149.523024 121.543284 
L 150.741697 113.212038 
L 152.265038 102.872849 
L 152.874375 99.682266 
L 153.483712 97.434992 
L 153.78838 96.733881 
L 154.093048 96.343702 
L 154.397717 96.280857 
L 154.702385 96.556803 
L 155.007053 97.177707 
L 155.61639 99.451056 
L 156.225726 103.036328 
L 157.139731 110.506185 
L 158.663073 126.113654 
L 159.881746 137.956012 
L 160.491083 142.512009 
L 161.100419 145.657065 
L 161.405088 146.606225 
L 161.709756 147.100943 
L 162.014424 147.120385 
L 162.319092 146.651031 
L 162.623761 145.6871 
L 163.233097 142.292824 
L 163.842434 137.054639 
L 164.756439 126.313485 
L 166.584449 99.865991 
L 167.498454 87.904586 
L 168.10779 81.716785 
L 168.717127 77.534845 
L 169.021795 76.31837 
L 169.326463 75.733554 
L 169.631132 75.805066 
L 169.9358 76.547315 
L 170.240468 77.963969 
L 170.849805 82.779772 
L 171.459142 90.059674 
L 172.373146 104.756582 
L 175.41983 160.205071 
L 176.029166 166.910669 
L 176.638503 170.65508 
L 176.943171 171.294767 
L 177.247839 171.072436 
L 177.552508 169.974712 
L 177.857176 168.002358 
L 178.466513 161.508812 
L 179.075849 151.884566 
L 179.989854 132.749081 
L 183.036537 62.621489 
L 183.645874 54.46287 
L 183.950542 51.767567 
L 184.25521 50.078492 
L 184.559879 49.439186 
L 184.864547 49.87668 
L 185.169215 51.400794 
L 185.473884 54.003699 
L 186.08322 62.325785 
L 186.692557 74.429376 
L 187.606562 98.137297 
L 190.348576 176.326541 
L 190.957913 187.799554 
L 191.56725 195.0203 
L 191.871918 196.845581 
L 192.176586 197.415671 
L 192.481255 196.706445 
L 192.785923 194.714374 
L 193.090591 191.456829 
L 193.699928 181.318647 
L 194.309264 166.838356 
L 195.223269 138.887831 
L 197.660616 57.08849 
L 198.269952 42.190171 
L 198.879289 31.817466 
L 199.183957 28.573749 
L 199.488626 26.716293 
L 199.793294 26.286214 
L 200.097962 27.301725 
L 200.402631 29.757656 
L 201.011967 38.853012 
L 201.621304 53.069391 
L 202.535309 82.070643 
L 205.581992 191.261718 
L 206.191328 204.730482 
L 206.800665 212.749391 
L 207.105333 214.524765 
L 207.410002 214.756364 
L 207.71467 213.434375 
L 208.019338 210.574164 
L 208.628675 200.425064 
L 209.238011 184.919255 
L 210.152016 153.79992 
L 212.894031 48.666714 
L 213.503368 32.580807 
L 214.112704 21.821906 
L 214.417373 18.671632 
L 214.722041 17.083636 
L 215.026709 17.083636 
L 215.331377 18.671632 
L 215.636046 21.821906 
L 216.245382 32.580807 
L 216.854719 48.666714 
L 217.768724 80.440094 
L 220.510739 184.919255 
L 221.120075 200.425064 
L 221.729412 210.574164 
L 222.03408 213.434375 
L 222.338748 214.756364 
L 222.643417 214.524765 
L 222.948085 212.749391 
L 223.252753 209.46497 
L 223.86209 198.628094 
L 224.471427 182.755215 
L 225.385432 151.886471 
L 227.822778 61.846553 
L 228.432115 45.366279 
L 229.041451 33.625361 
L 229.650788 27.301725 
L 229.955456 26.286214 
L 230.260124 26.716293 
L 230.564793 28.573749 
L 230.869461 31.817466 
L 231.478798 42.190171 
L 232.088134 57.08849 
L 233.002139 85.624928 
L 235.439486 166.838356 
L 236.048822 181.318647 
L 236.658159 191.456829 
L 236.962827 194.714374 
L 237.267495 196.706445 
L 237.572164 197.415671 
L 237.876832 196.845581 
L 238.1815 195.0203 
L 238.486169 191.983922 
L 239.095505 182.548063 
L 239.704842 169.246529 
L 240.618847 144.14452 
L 242.751525 81.697783 
L 243.66553 62.325785 
L 244.274866 54.003699 
L 244.579535 51.400794 
L 244.884203 49.87668 
L 245.188871 49.439186 
L 245.49354 50.078492 
L 245.798208 51.767567 
L 246.407545 58.105316 
L 247.016881 67.92506 
L 247.930886 87.538186 
L 250.672901 151.884566 
L 251.282237 161.508812 
L 251.891574 168.002358 
L 252.196242 169.974712 
L 252.500911 171.072436 
L 252.805579 171.294767 
L 253.110247 170.65508 
L 253.414916 169.180393 
L 254.024252 163.897908 
L 254.633589 155.904832 
L 255.547594 140.202529 
L 257.98494 94.515789 
L 258.594277 86.130648 
L 259.203613 80.047645 
L 259.81295 76.547315 
L 260.117618 75.805066 
L 260.422287 75.733554 
L 260.726955 76.31837 
L 261.031623 77.534845 
L 261.64096 81.716785 
L 262.250296 87.904586 
L 263.164301 99.865991 
L 265.601648 133.816377 
L 266.210984 139.891761 
L 266.820321 144.230864 
L 267.429658 146.651031 
L 267.734326 147.120385 
L 268.038994 147.100943 
L 268.343662 146.606225 
L 268.648331 145.657065 
L 269.257667 142.512009 
L 269.867004 137.956012 
L 270.781009 129.286251 
L 272.913687 107.77641 
L 273.827692 101.087379 
L 274.437029 98.144172 
L 275.046365 96.556803 
L 275.351033 96.280857 
L 275.655702 96.343702 
L 275.96037 96.733881 
L 276.265038 97.434992 
L 276.874375 99.682266 
L 277.483712 102.872849 
L 278.702385 111.019186 
L 280.225726 121.543284 
L 281.139731 126.486478 
L 281.749068 128.820679 
L 282.358404 130.267347 
L 282.663073 130.64563 
L 282.967741 130.795077 
L 283.272409 130.721185 
L 283.577078 130.43288 
L 284.186414 129.264266 
L 284.795751 127.418217 
L 285.709756 123.741903 
L 288.147102 113.056403 
L 289.061107 110.300839 
L 289.670444 109.136759 
L 290.27978 108.554816 
L 290.584449 108.481456 
L 290.889117 108.548129 
L 291.498454 109.073819 
L 292.10779 110.058437 
L 293.021795 112.17915 
L 296.068478 120.166687 
L 296.677815 121.183975 
L 297.287151 121.862663 
L 297.896488 122.187582 
L 298.505825 122.16727 
L 299.115161 121.831497 
L 299.724498 121.227618 
L 300.638503 119.953725 
L 303.380518 115.65399 
L 304.294522 114.723739 
L 304.903859 114.347567 
L 305.513196 114.175859 
L 306.122532 114.20121 
L 306.731869 114.404341 
L 307.645874 114.977285 
L 309.169215 116.331847 
L 310.692557 117.657711 
L 311.606562 118.234586 
L 312.520567 118.573728 
L 313.434572 118.661721 
L 314.348576 118.521895 
L 315.56725 118.073073 
L 319.223269 116.481541 
L 320.441943 116.283087 
L 321.660616 116.310894 
L 323.183957 116.582521 
L 326.839977 117.382693 
L 328.667987 117.481341 
L 330.800665 117.324487 
L 335.066021 116.913132 
L 337.808036 116.94229 
L 344.510739 117.160507 
L 357.002139 117.093056 
L 367.056193 117.078137 
L 367.056193 117.078137 
" clip-path="url(#p68244be28d)" style="fill: none; stroke: #0000ff; stroke-width: 1.5; stroke-linecap: square"/>
   </g>
   <g id="patch_3">
    <path d="M 47.474375 224.64 
L 47.474375 7.2 
" style="fill: none; stroke: #000000; stroke-width: 1.5; stroke-linejoin: miter; stroke-linecap: square"/>
   </g>
   <g id="patch_4">
    <path d="M 382.274375 224.64 
L 382.274375 7.2 
" style="fill: none; stroke: #000000; stroke-width: 1.5; stroke-linejoin: miter; stroke-linecap: square"/>
   </g>
   <g id="patch_5">
    <path d="M 47.474375 224.64 
L 382.274375 224.64 
" style="fill: none; stroke: #000000; stroke-width: 1.5; stroke-linejoin: miter; stroke-linecap: square"/>
   </g>
   <g id="patch_6">
    <path d="M 47.474375 7.2 
L 382.274375 7.2 
" style="fill: none; stroke: #000000; stroke-width: 1.5; stroke-linejoin: miter; stroke-linecap: square"/>
   </g>
  </g>
 </g>
 <defs>
  <clipPath id="p68244be28d">
   <rect x="47.474375" y="7.2" width="334.8" height="217.44"/>
  </clipPath>
 </defs>
</svg>
